PathFileType   4   (X/Y/Z)
DataRate	CameraRate	NumFrames	NumMarkers	Units	OrigDataRate	OrigDataStartFrame	OrigNumFrames
120.0	120.0	9	37	mm	120.0	79	156
Frame#	Time	midhip	hip_r	hip_l	knee_r	knee_l	ankle_r	ankle_l	midasis	asis_r	asis_l	psis_r	psis_l	epicondLat_r	epicondLat_l	epicondMed_r	epicondMed_l	malleolusLat_r	malleolusLat_l	malleolusMedv_r	malleolusMedv_l	neck	subclavicle_r	subclavicle_l	sternalnotch	xyphoidprocess	thighwand_r	thighwand_l	upperleg1_r	upperleg1_l	upperleg2_r	upperleg2_l	shankwand_r	shankwand_l	lowerleg1_r	lowerleg1_l	toe_r	toe_l
 	 	X1	Y1	Z1	X2	Y2	Z2	X3	Y3	Z3	X4	Y4	Z4	X5	Y5	Z5	X6	Y6	Z6	X7	Y7	Z7	X8	Y8	Z8	X9	Y9	Z9	X10	Y10	Z10	X11	Y11	Z11	X12	Y12	Z12	X13	Y13	Z13	X14	Y14	Z14	X15	Y15	Z15	X16	Y16	Z16	X17	Y17	Z17	X18	Y18	Z18	X19	Y19	Z19	X20	Y20	Z20	X21	Y21	Z21	X22	Y22	Z22	X23	Y23	Z23	X24	Y24	Z24	X25	Y25	Z25	X26	Y26	Z26	X27	Y27	Z27	X28	Y28	Z28	X29	Y29	Z29	X30	Y30	Z30	X31	Y31	Z31	X32	Y32	Z32	X33	Y33	Z33	X34	Y34	Z34	X35	Y35	Z35	X36	Y36	Z36	X37	Y37	Z37

	79	0.86667	-1773.026	888.952	208.493	-1769.235	875.222	260.495	-1778.604	873.329	154.354	-1626.611	487.808	256.091	-1851.318	465.961	140.295	-1587.343	71.643	250.465	-2088.494	115.711	147.852	-1697.169	972.317	198.902	-1687.932	974.184	303.555	-1706.406	970.451	94.249	-1896.389	995.754	255.650	-1904.385	996.157	171.314	-1622.748	488.555	315.461	-1849.939	467.767	80.838	-1641.387	497.923	194.579	-1851.858	467.619	191.405	-1592.453	70.652	288.107	-2092.394	117.505	108.586	-1586.841	75.893	217.498	-2077.931	123.449	176.815	-1832.795	1451.412	215.513	-1729.238	1377.306	289.358	-1742.514	1381.044	134.256	-1748.477	1380.702	208.945	-1713.802	1179.208	194.350	-1631.922	587.906	401.227	-1678.362	567.103	122.414	-1626.965	655.203	333.736	-1745.513	640.159	88.631	-1605.716	578.620	306.280	-1770.255	556.359	92.969	-1588.599	146.423	356.005	-1940.998	156.215	146.923	-1610.413	201.480	294.133	-1970.803	233.917	136.818	-1463.818	46.859	246.791	-1984.958	43.389	145.947
	80	0.87500	-1766.216	889.548	209.169	-1762.229	876.278	261.391	-1771.403	874.353	155.234	-1622.391	487.953	256.988	-1841.774	466.343	139.817	-1586.817	71.491	250.780	-2084.075	119.631	146.999	-1690.061	973.364	199.901	-1681.022	975.260	304.485	-1699.099	971.467	95.317	-1889.341	996.734	256.067	-1897.129	997.205	171.742	-1618.328	488.743	316.343	-1840.693	468.403	80.363	-1636.453	498.534	195.516	-1840.271	466.387	191.057	-1591.786	70.505	288.440	-2088.463	121.886	107.808	-1585.971	75.969	217.894	-2073.259	127.466	175.856	-1826.193	1452.346	217.379	-1722.644	1378.328	291.266	-1735.722	1382.301	136.065	-1741.783	1381.824	210.789	-1706.735	1180.415	195.909	-1626.569	588.469	402.134	-1668.805	568.169	121.400	-1621.181	655.713	334.651	-1737.338	640.936	88.442	-1600.381	579.065	307.239	-1760.726	556.991	92.492	-1586.980	146.051	356.483	-1936.044	158.004	144.517	-1608.567	201.513	294.943	-1964.937	236.355	135.625	-1463.053	45.836	247.099	-1983.692	43.473	145.858
	81	0.88333	-1760.338	889.670	209.527	-1755.415	877.314	262.205	-1764.306	875.395	156.024	-1618.557	488.111	257.952	-1831.972	466.807	139.260	-1586.424	71.397	251.145	-2079.189	123.602	146.124	-1683.092	974.409	200.915	-1674.343	976.298	305.405	-1691.841	972.521	96.425	-1882.718	997.690	256.459	-1890.405	998.357	172.132	-1614.314	488.954	317.295	-1831.241	469.125	79.809	-1631.732	498.929	196.772	-1829.109	466.080	190.806	-1591.328	70.404	288.815	-2084.116	126.369	107.031	-1585.332	76.078	218.336	-2068.119	131.532	174.864	-1819.616	1453.339	219.202	-1716.018	1379.427	293.144	-1728.945	1383.640	137.851	-1735.081	1383.023	212.609	-1699.603	1181.712	197.425	-1621.581	589.014	403.105	-1659.099	569.346	120.158	-1615.703	656.209	335.702	-1728.582	641.811	87.892	-1595.347	579.399	308.443	-1751.152	557.711	91.884	-1585.753	145.719	357.027	-1930.819	159.941	141.890	-1606.883	201.560	295.800	-1958.668	238.870	134.352	-1462.433	45.101	247.453	-1982.352	43.487	145.763
	82	0.89167	-1754.849	889.483	210.544	-1748.822	878.327	262.957	-1757.352	876.444	156.745	-1615.043	488.284	258.920	-1821.896	467.333	138.632	-1586.145	71.352	251.529	-2073.809	127.577	145.209	-1676.282	975.436	201.944	-1667.900	977.287	306.313	-1684.664	973.585	97.575	-1876.464	998.615	256.843	-1883.549	999.567	172.595	-1610.677	489.167	318.253	-1821.562	469.912	79.189	-1627.324	499.314	198.040	-1817.873	465.794	190.313	-1591.045	70.344	289.199	-2079.319	130.909	106.237	-1584.949	76.202	218.776	-2062.574	135.574	173.811	-1813.071	1454.390	220.956	-1709.428	1380.431	294.919	-1722.232	1385.085	139.596	-1728.429	1384.236	214.363	-1692.625	1183.026	198.611	-1617.007	589.490	404.099	-1649.273	570.616	118.725	-1610.525	656.647	336.862	-1719.637	642.769	87.281	-1590.643	579.601	309.715	-1741.487	558.434	91.126	-1584.857	145.434	357.595	-1925.395	161.950	139.051	-1605.435	201.636	296.585	-1951.803	241.558	132.893	-1461.960	44.580	247.771	-1980.931	43.445	145.655
	83	0.90000	-1749.635	889.208	211.669	-1742.403	879.323	263.686	-1750.542	877.491	157.443	-1611.770	488.470	259.842	-1811.553	467.890	137.943	-1585.951	71.344	251.890	-2067.923	131.514	144.230	-1669.613	976.440	202.986	-1661.629	978.238	307.208	-1677.596	974.643	98.764	-1870.406	999.545	257.267	-1876.812	1000.807	173.093	-1607.356	489.362	319.171	-1811.647	470.734	78.511	-1624.033	499.481	199.306	-1806.395	465.385	189.558	-1590.891	70.320	289.553	-2074.039	135.449	105.406	-1584.710	76.340	219.179	-2056.629	139.544	172.696	-1806.486	1455.433	222.696	-1703.985	1381.319	296.629	-1715.506	1386.548	141.333	-1722.318	1385.443	215.989	-1686.731	1184.229	199.807	-1612.835	589.859	405.068	-1639.360	571.974	117.164	-1606.210	656.871	337.984	-1710.514	643.767	86.680	-1586.737	579.643	310.834	-1731.617	559.172	90.255	-1584.197	145.193	358.135	-1919.850	163.924	136.064	-1604.410	201.712	297.251	-1944.513	244.151	131.239	-1461.619	44.214	248.015	-1979.404	43.380	145.554
	84	0.90833	-1741.967	891.482	212.625	-1736.063	880.326	264.462	-1743.859	878.541	158.193	-1608.642	488.673	260.684	-1800.966	468.448	137.212	-1585.822	71.355	252.195	-2061.529	135.370	143.176	-1663.024	977.428	204.037	-1655.390	979.176	308.096	-1670.657	975.680	99.979	-1864.054	1000.507	257.876	-1869.941	1002.031	173.664	-1604.265	489.525	320.016	-1801.507	471.563	77.796	-1621.903	499.368	200.606	-1794.783	464.827	188.517	-1590.823	70.316	289.850	-2068.248	139.934	104.520	-1584.519	76.479	219.529	-2050.273	143.429	171.531	-1804.996	1456.466	224.275	-1699.640	1382.210	298.315	-1708.808	1387.957	143.098	-1716.776	1386.359	217.523	-1676.941	1185.971	200.989	-1609.006	590.108	405.969	-1629.410	573.435	115.551	-1602.579	656.876	338.941	-1701.259	644.770	86.112	-1583.583	579.545	311.781	-1721.594	559.891	89.290	-1583.680	144.986	358.608	-1914.030	165.846	132.993	-1603.672	201.813	297.828	-1936.879	246.533	129.525	-1461.388	43.956	248.183	-1977.727	43.363	145.510
	85	0.91667	-1735.754	892.053	213.562	-1729.641	881.344	265.373	-1737.242	879.580	159.089	-1605.592	488.892	261.430	-1790.151	468.972	136.474	-1585.743	71.371	252.431	-2054.650	139.127	142.042	-1656.432	978.412	205.098	-1649.002	980.137	308.994	-1663.862	976.687	101.201	-1857.533	1001.529	258.573	-1863.127	1003.197	174.293	-1601.296	489.654	320.770	-1791.159	472.374	77.080	-1619.172	499.581	201.550	-1783.064	464.253	187.310	-1590.807	70.319	290.077	-2061.949	144.330	103.573	-1584.398	76.591	219.786	-2043.322	147.231	170.321	-1800.247	1457.543	225.844	-1694.290	1383.316	300.036	-1702.170	1389.378	144.892	-1710.763	1387.545	219.177	-1669.423	1187.474	202.501	-1605.342	590.248	406.777	-1619.466	575.015	113.950	-1598.497	656.918	339.841	-1692.027	645.858	85.454	-1580.133	579.503	312.688	-1711.497	560.608	88.231	-1583.228	144.801	358.990	-1907.648	167.779	129.890	-1602.778	201.951	298.315	-1928.716	248.896	127.829	-1461.242	43.775	248.288	-1975.809	43.485	145.530
	86	0.92500	-1728.624	893.389	214.622	-1723.095	882.381	266.445	-1730.689	880.605	160.161	-1602.607	489.118	262.071	-1779.134	469.441	135.772	-1585.701	71.383	252.595	-2047.338	142.799	140.839	-1649.810	979.385	206.159	-1642.397	981.120	309.910	-1657.223	977.651	102.409	-1850.717	1002.627	259.387	-1856.137	1004.272	175.025	-1598.383	489.752	321.418	-1780.624	473.138	76.406	-1615.738	499.995	202.113	-1771.344	463.730	186.034	-1590.811	70.322	290.234	-2055.157	148.626	102.562	-1584.353	76.660	219.919	-2035.831	150.920	169.053	-1793.854	1458.574	227.332	-1687.957	1384.499	301.725	-1695.588	1390.789	146.587	-1704.302	1388.821	220.850	-1662.535	1188.860	203.929	-1601.688	590.306	407.482	-1609.526	576.712	112.420	-1594.109	656.969	340.668	-1682.872	646.959	84.747	-1576.323	579.441	313.460	-1701.391	561.402	87.139	-1582.771	144.625	359.275	-1900.613	169.759	126.863	-1601.794	202.066	298.648	-1920.145	251.229	126.164	-1461.155	43.644	248.333	-1973.573	43.820	145.614
	87	0.93333	-1721.209	895.029	215.564	-1716.430	883.416	267.665	-1724.206	881.597	161.395	-1599.646	489.350	262.601	-1767.951	469.847	135.141	-1585.690	71.386	252.684	-2039.669	146.430	139.585	-1643.167	980.331	207.211	-1635.584	982.104	310.840	-1650.750	978.558	103.581	-1843.752	1003.803	260.257	-1849.261	1005.254	175.822	-1595.471	489.824	321.953	-1769.917	473.839	75.807	-1612.294	500.640	202.327	-1759.542	463.267	185.175	-1590.812	70.322	290.323	-2047.909	152.829	101.488	-1584.342	76.699	219.985	-2027.928	154.494	167.768	-1785.976	1459.478	228.798	-1680.656	1385.679	303.301	-1689.054	1392.111	148.170	-1697.399	1390.101	222.493	-1656.127	1190.068	205.204	-1597.987	590.308	408.072	-1599.588	578.502	111.032	-1589.399	657.030	341.358	-1673.825	647.951	84.152	-1572.381	579.348	314.007	-1691.341	562.166	86.281	-1582.251	144.449	359.462	-1892.956	171.782	124.059	-1600.843	202.142	298.901	-1911.500	253.530	124.516	-1461.106	43.541	248.319	-1970.989	44.451	145.761
